<?xml version="1.0" encoding="UTF-8"?>
<svg id="Layer_7" data-name="Layer 7" xmlns="http://www.w3.org/2000/svg" viewBox="0 0 655.5 664.5">
  <defs>
    <style>
      .cls-1, .cls-2 {
        stroke-width: 0px;
      }

      .cls-2 {
        fill: #1a1a1a;
      }
    </style>
  </defs>
  <g>
    <g>
      <path class="cls-1" d="m219.2,503.96h-12.81v-110.18h61.35v11.3h-48.53v40.39h45.59v11.23h-45.59v47.25Z"/>
      <path class="cls-1" d="m286.04,503.96v-110.18h12.81v98.73h48.91v11.46h-61.72Z"/>
      <path class="cls-1" d="m366.61,503.96v-110.18h12.81v110.18h-12.81Z"/>
      <path class="cls-1" d="m438.5,393.78c14.22,0,24.61,2.78,31.16,8.33,6.56,5.55,9.83,13.5,9.83,23.85,0,4.67-.77,9.11-2.3,13.3-1.53,4.2-4.01,7.89-7.42,11.08-3.42,3.19-7.9,5.7-13.45,7.54-5.55,1.83-12.35,2.75-20.39,2.75h-13.41v43.33h-12.81v-110.18h28.79Zm-1.21,10.93h-14.77v44.92h11.98c7.03,0,12.9-.75,17.6-2.26,4.7-1.51,8.23-3.96,10.59-7.35,2.36-3.39,3.54-7.9,3.54-13.53,0-7.34-2.34-12.8-7.01-16.39-4.67-3.59-11.98-5.39-21.93-5.39Z"/>
    </g>
    <g>
      <path class="cls-1" d="m240.83,572.43c0,3.29-.82,6.09-2.45,8.41-1.63,2.32-3.92,4.08-6.85,5.3-2.94,1.21-6.39,1.82-10.36,1.82-2.1,0-4.09-.1-5.96-.3-1.87-.2-3.59-.49-5.16-.87-1.57-.38-2.95-.85-4.14-1.41v-6.19c1.9.78,4.21,1.51,6.95,2.18s5.59,1.01,8.58,1.01c2.78,0,5.14-.37,7.06-1.12,1.92-.75,3.38-1.82,4.38-3.23,1-1.41,1.5-3.09,1.5-5.07s-.42-3.49-1.25-4.77c-.84-1.28-2.22-2.44-4.16-3.49-1.94-1.05-4.58-2.17-7.92-3.36-2.35-.83-4.43-1.75-6.23-2.75-1.8-1-3.3-2.13-4.52-3.4s-2.13-2.73-2.75-4.4c-.62-1.67-.93-3.58-.93-5.73,0-2.96.75-5.5,2.26-7.61,1.51-2.11,3.59-3.73,6.26-4.86,2.67-1.13,5.74-1.69,9.21-1.69,2.96,0,5.7.28,8.22.83,2.52.56,4.83,1.3,6.93,2.24l-2.01,5.54c-2-.84-4.12-1.53-6.36-2.09-2.24-.56-4.55-.84-6.93-.84s-4.39.35-6.02,1.04c-1.63.7-2.88,1.68-3.74,2.94-.86,1.27-1.29,2.77-1.29,4.52,0,1.95.41,3.57,1.23,4.86.82,1.29,2.14,2.44,3.95,3.44,1.81,1,4.21,2.04,7.19,3.13,3.26,1.19,6.04,2.45,8.31,3.78,2.28,1.33,4.01,2.95,5.2,4.86,1.19,1.91,1.78,4.33,1.78,7.27Z"/>
      <path class="cls-1" d="m275.87,536.59c-3.06,0-5.82.53-8.26,1.58-2.44,1.05-4.52,2.57-6.23,4.56-1.71,1.99-3.02,4.38-3.93,7.19s-1.37,5.97-1.37,9.49c0,4.66.73,8.7,2.18,12.13,1.46,3.43,3.63,6.08,6.53,7.95,2.9,1.87,6.52,2.81,10.88,2.81,2.48,0,4.81-.21,7-.63,2.19-.42,4.32-.94,6.4-1.58v5.62c-2.03.76-4.15,1.32-6.38,1.69-2.23.37-4.87.55-7.93.55-5.64,0-10.36-1.17-14.14-3.51-3.78-2.34-6.62-5.65-8.5-9.93-1.89-4.28-2.83-9.33-2.83-15.15,0-4.2.59-8.04,1.77-11.52,1.18-3.48,2.9-6.48,5.16-9.02,2.26-2.53,5.05-4.49,8.35-5.87,3.3-1.38,7.09-2.07,11.37-2.07,2.81,0,5.52.28,8.12.83,2.61.56,4.96,1.36,7.06,2.39l-2.58,5.47c-1.77-.81-3.71-1.51-5.83-2.11-2.11-.59-4.4-.89-6.85-.89Z"/>
      <path class="cls-1" d="m316.12,531.69c4.56,0,8.32.56,11.29,1.69,2.97,1.13,5.19,2.84,6.66,5.14,1.47,2.3,2.2,5.24,2.2,8.81,0,2.94-.53,5.39-1.59,7.35-1.06,1.96-2.46,3.55-4.18,4.77-1.72,1.21-3.56,2.15-5.5,2.81l15.22,24.94h-7.52l-13.59-23.16h-11.54v23.16h-6.45v-55.5h15Zm-.38,5.58h-8.16v21.3h8.81c4.53,0,7.86-.92,10-2.77,2.14-1.85,3.21-4.57,3.21-8.16,0-3.77-1.13-6.44-3.4-8.01-2.27-1.57-5.75-2.35-10.46-2.35Z"/>
      <path class="cls-1" d="m380.01,587.2h-30.9v-55.5h30.9v5.69h-24.45v17.96h23.04v5.62h-23.04v20.54h24.45v5.69Z"/>
      <path class="cls-1" d="m423.22,587.2h-30.9v-55.5h30.9v5.69h-24.45v17.96h23.04v5.62h-23.04v20.54h24.45v5.69Z"/>
      <path class="cls-1" d="m478.91,587.2h-7.44l-30.26-46.62h-.3c.08,1.24.16,2.65.27,4.23.1,1.58.18,3.26.25,5.05.06,1.78.1,3.6.1,5.45v31.89h-6v-55.5h7.4l30.14,46.47h.27c-.05-.89-.11-2.15-.19-3.78-.08-1.63-.15-3.39-.21-5.28-.06-1.88-.09-3.64-.09-5.26v-32.16h6.07v55.5Z"/>
    </g>
  </g>
  <g>
    <path class="cls-2" d="m89.92,265.73c-1.83-25.26-1.45-89.15,41.59-136.78,32.06-35.49,80.8-54.43,144.86-56.29l.46,15.99c-59.53,1.73-104.43,18.9-133.45,51.03-38.9,43.06-39.18,101.69-37.5,124.9l-15.96,1.16Z"/>
    <polygon class="cls-2" points="136.57 231.77 129.29 225.5 98.45 261.41 64.88 228.04 58.12 234.86 99.01 275.5 136.57 231.77"/>
    <polygon class="cls-2" points="246.9 121.92 239.99 115.25 272.92 81.25 236.61 50.88 242.78 43.52 287 80.51 246.9 121.92"/>
  </g>
  <path class="cls-2" d="m307.5,41.53v241.12c0,5.44,4.41,9.85,9.85,9.85h0c5.44,0,9.85-4.41,9.85-9.85V41.53c0-11.68,9.2-21.18,20.5-21.18h51.25v8.38c0,10.61,8.35,19.23,18.62,19.23h126.91c10.27,0,18.62-8.62,18.62-19.23v-8.38h52.19c11.3,0,20.5,9.51,20.5,21.18v241.12c0,5.44,4.41,9.85,9.85,9.85h0c5.44,0,9.85-4.41,9.85-9.85V41.53c0-22.9-18.04-41.53-40.2-41.53h-267.59c-22.17,0-40.2,18.63-40.2,41.53Z"/>
  <path class="cls-2" d="m0,356.7v267.59c0,22.17,18.63,40.2,41.53,40.2h571.94c22.9,0,41.53-18.04,41.53-40.2v-267.59c0-22.17-18.63-40.2-41.53-40.2H41.53c-22.9,0-41.53,18.04-41.53,40.2Zm613.47-20.5c11.68,0,21.18,9.2,21.18,20.5v267.59c0,11.3-9.51,20.5-21.18,20.5H41.53c-11.68,0-21.18-9.2-21.18-20.5v-51.25h8.38c10.61,0,19.23-8.35,19.23-18.62v-126.91c0-10.27-8.62-18.62-19.23-18.62h-8.38v-52.19c0-11.3,9.51-20.5,21.18-20.5h571.94Z"/>
</svg>